<svg width="27" height="26" viewBox="0 0 27 26" fill="none" xmlns="http://www.w3.org/2000/svg">
<rect x="0.333496" width="26" height="26" rx="13" fill="#FDEDFE"/>
<path fill-rule="evenodd" clip-rule="evenodd" d="M12.2294 8.58226C12.0694 8.7208 11.8777 8.86669 11.6585 8.95786C11.4377 9.04971 11.1992 9.081 10.9892 9.0948C10.8517 9.10383 10.6983 9.10628 10.5585 9.10851C10.4921 9.10957 10.4288 9.11058 10.3718 9.11222C9.95121 9.12432 9.73713 9.17602 9.62332 9.28983C9.51016 9.40299 9.46054 9.61069 9.44986 10.0287C9.44849 10.0822 9.44767 10.1409 9.44682 10.2025C9.44483 10.3453 9.44264 10.5034 9.43284 10.6474C9.41835 10.8605 9.38526 11.1008 9.29094 11.326C9.19761 11.5489 9.05165 11.7424 8.91155 11.9047C8.81597 12.0154 8.70572 12.1305 8.60566 12.2349C8.56308 12.2794 8.52235 12.3219 8.48538 12.3613C8.35022 12.5055 8.24577 12.6279 8.17471 12.7432C8.10541 12.8556 8.0835 12.9366 8.0835 13C8.0835 13.0628 8.10565 13.1451 8.17646 13.2602C8.24867 13.3776 8.35454 13.5023 8.49012 13.6476C8.52888 13.6891 8.57188 13.7341 8.6168 13.7811C8.71536 13.8843 8.82317 13.9971 8.91576 14.1041C9.0543 14.2641 9.20019 14.4558 9.29135 14.675C9.38321 14.8958 9.41449 15.1343 9.42829 15.3443C9.43733 15.4818 9.43978 15.6352 9.44201 15.775C9.44307 15.8414 9.44408 15.9047 9.44572 15.9617C9.45781 16.3823 9.50952 16.5964 9.62332 16.7102C9.73649 16.8233 9.94419 16.873 10.3622 16.8836C10.4157 16.885 10.4744 16.8858 10.536 16.8867C10.6788 16.8887 10.8369 16.8909 10.9809 16.9007C11.194 16.9151 11.4343 16.9482 11.6595 17.0426C11.8824 17.1359 12.0759 17.2818 12.2382 17.4219C12.3489 17.5175 12.464 17.6278 12.5684 17.7278C12.6129 17.7704 12.6554 17.8111 12.6948 17.8481C12.839 17.9833 12.9614 18.0877 13.0767 18.1588C13.1891 18.2281 13.2701 18.25 13.3335 18.25C13.3963 18.25 13.4786 18.2278 13.5937 18.157C13.7111 18.0848 13.8358 17.979 13.981 17.8434C14.0226 17.8046 14.0676 17.7616 14.1146 17.7167C14.2178 17.6181 14.3306 17.5103 14.4376 17.4177C14.5976 17.2792 14.7893 17.1333 15.0084 17.0421C15.2293 16.9503 15.4678 16.919 15.6778 16.9052C15.8153 16.8962 15.9687 16.8937 16.1085 16.8915C16.1749 16.8904 16.2382 16.8894 16.2952 16.8878C16.7158 16.8757 16.9299 16.824 17.0437 16.7102C17.1568 16.597 17.2065 16.3893 17.2171 15.9713C17.2185 15.9178 17.2193 15.8591 17.2202 15.7975C17.2222 15.6547 17.2244 15.4966 17.2341 15.3526C17.2486 15.1395 17.2817 14.8992 17.3761 14.674C17.4694 14.4511 17.6153 14.2576 17.7554 14.0953C17.851 13.9846 17.9613 13.8695 18.0613 13.7651C18.1039 13.7206 18.1446 13.6781 18.1816 13.6387C18.3168 13.4945 18.4212 13.3721 18.4923 13.2568C18.5616 13.1444 18.5835 13.0634 18.5835 13C18.5835 12.9372 18.5613 12.8549 18.4905 12.7398C18.4183 12.6224 18.3125 12.4977 18.1769 12.3524C18.1381 12.3109 18.0951 12.2659 18.0502 12.2189C17.9516 12.1157 17.8438 12.0029 17.7512 11.8959C17.6127 11.7359 17.4668 11.5442 17.3756 11.325C17.2838 11.1042 17.2525 10.8657 17.2387 10.6557C17.2297 10.5182 17.2272 10.3648 17.225 10.225C17.2239 10.1586 17.2229 10.0953 17.2213 10.0383C17.2092 9.61771 17.1575 9.40363 17.0437 9.28983C16.9305 9.17666 16.7228 9.12704 16.3048 9.11636C16.2513 9.11499 16.1926 9.11418 16.131 9.11332C15.9882 9.11134 15.8301 9.10914 15.686 9.09935C15.473 9.08486 15.2327 9.05177 15.0075 8.95745C14.7846 8.86411 14.5911 8.71816 14.4288 8.57806C14.3181 8.48248 14.203 8.37222 14.0986 8.27217C14.0541 8.22959 14.0116 8.18886 13.9722 8.15189C13.828 8.01672 13.7056 7.91228 13.5903 7.84121C13.4779 7.77192 13.3969 7.75 13.3335 7.75C13.2707 7.75 13.1884 7.77215 13.0733 7.84296C12.9559 7.91517 12.8312 8.02104 12.6859 8.15663C12.6444 8.19539 12.5994 8.23839 12.5524 8.2833C12.4492 8.38186 12.3364 8.48967 12.2294 8.58226ZM12.6148 7.09769C12.8128 6.97589 13.0545 6.875 13.3335 6.875C13.6119 6.875 13.8522 6.97476 14.0495 7.09636C14.2438 7.21619 14.4195 7.37185 14.5706 7.51354C14.6256 7.56512 14.6764 7.61381 14.7249 7.66035C14.8204 7.75187 14.9072 7.83509 15.0006 7.91572C15.137 8.0335 15.2484 8.10972 15.3455 8.15037C15.4402 8.19003 15.569 8.21436 15.7454 8.22636C15.8659 8.23456 15.9827 8.23611 16.1121 8.23784C16.1796 8.23874 16.2505 8.23969 16.3272 8.24165C16.7118 8.25147 17.2724 8.28115 17.6624 8.67111C18.0517 9.06043 18.0848 9.62565 18.0959 10.0131C18.0983 10.0959 18.0994 10.1717 18.1005 10.2435C18.1024 10.3682 18.1041 10.4811 18.1118 10.5983C18.1235 10.7757 18.1469 10.9009 18.1835 10.989C18.2209 11.0788 18.2944 11.1865 18.4128 11.3232C18.4917 11.4144 18.5729 11.4993 18.6622 11.5926C18.7109 11.6435 18.762 11.697 18.8165 11.7554C18.9591 11.9082 19.1154 12.0856 19.2358 12.2813C19.3576 12.4793 19.4585 12.721 19.4585 13C19.4585 13.2784 19.3587 13.5187 19.2371 13.716C19.1173 13.9103 18.9616 14.086 18.82 14.2371C18.7684 14.2921 18.7197 14.3429 18.6732 14.3914C18.5816 14.4869 18.4984 14.5737 18.4178 14.6671C18.3 14.8035 18.2238 14.9149 18.1831 15.012C18.1435 15.1067 18.1191 15.2355 18.1071 15.4119C18.0989 15.5324 18.0974 15.6492 18.0957 15.7786C18.0948 15.8461 18.0938 15.917 18.0918 15.9937C18.082 16.3783 18.0523 16.9389 17.6624 17.3289C17.2731 17.7182 16.7078 17.7513 16.3204 17.7624C16.2376 17.7648 16.1618 17.7659 16.09 17.767C15.9653 17.7689 15.8524 17.7706 15.7352 17.7783C15.5578 17.79 15.4326 17.8134 15.3445 17.85C15.2547 17.8874 15.147 17.9609 15.0103 18.0793C14.9191 18.1582 14.8342 18.2394 14.7409 18.3287C14.69 18.3774 14.6365 18.4285 14.5781 18.483C14.4253 18.6256 14.2479 18.7819 14.0522 18.9023C13.8542 19.0241 13.6125 19.125 13.3335 19.125C13.0551 19.125 12.8148 19.0252 12.6175 18.9036C12.4232 18.7838 12.2475 18.6281 12.0964 18.4865C12.0414 18.4349 11.9906 18.3862 11.942 18.3397C11.8466 18.2481 11.7598 18.1649 11.6664 18.0843C11.53 17.9665 11.4186 17.8903 11.3215 17.8496C11.2268 17.81 11.098 17.7856 10.9216 17.7736C10.8011 17.7654 10.6843 17.7639 10.5549 17.7622C10.4874 17.7613 10.4165 17.7603 10.3398 17.7584C9.95522 17.7485 9.39457 17.7189 9.00461 17.3289C8.61528 16.9396 8.58222 16.3744 8.57108 15.9869C8.5687 15.9041 8.56755 15.8284 8.56647 15.7565C8.56459 15.6318 8.56288 15.5189 8.55518 15.4017C8.54352 15.2243 8.52011 15.0991 8.48345 15.011C8.4461 14.9212 8.37256 14.8135 8.25424 14.6768C8.17525 14.5856 8.09409 14.5007 8.00481 14.4074C7.95612 14.3565 7.905 14.303 7.8505 14.2446C7.70787 14.0918 7.55158 13.9144 7.43119 13.7187C7.30939 13.5207 7.2085 13.279 7.2085 13C7.2085 12.7216 7.30826 12.4813 7.42986 12.284C7.54969 12.0897 7.70535 11.914 7.84704 11.7629C7.89862 11.7079 7.94731 11.6571 7.99385 11.6086C8.08536 11.5131 8.16858 11.4263 8.24921 11.3329C8.367 11.1965 8.44321 11.0851 8.48386 10.988C8.52353 10.8933 8.54786 10.7645 8.55986 10.5881C8.56805 10.4676 8.56961 10.3508 8.57134 10.2214C8.57224 10.1539 8.57318 10.083 8.57514 10.0063C8.58497 9.62173 8.61464 9.06107 9.00461 8.67111C9.39393 8.28179 9.95914 8.24873 10.3466 8.23758C10.4294 8.2352 10.5051 8.23406 10.577 8.23297C10.7017 8.23109 10.8146 8.22939 10.9318 8.22168C11.1092 8.21002 11.2344 8.18662 11.3225 8.14995C11.4123 8.11261 11.52 8.03906 11.6567 7.92074C11.7479 7.84175 11.8328 7.7606 11.9261 7.67132C11.977 7.62262 12.0305 7.5715 12.0889 7.517C12.2417 7.37437 12.4191 7.21808 12.6148 7.09769Z" fill="#F26CF9"/>
<path fill-rule="evenodd" clip-rule="evenodd" d="M16.0563 11.3855C16.2231 11.5603 16.2166 11.8373 16.0417 12.0041L12.8316 15.0666C12.6624 15.2279 12.3963 15.2278 12.2273 15.0663L10.625 13.535C10.4503 13.3681 10.444 13.0912 10.6109 12.9165C10.7779 12.7418 11.0548 12.7355 11.2295 12.9025L12.5298 14.1451L15.4378 11.3709C15.6126 11.2042 15.8895 11.2107 16.0563 11.3855Z" fill="#F26CF9"/>
</svg>
