<svg width="26" height="26" viewBox="0 0 26 26" fill="none" xmlns="http://www.w3.org/2000/svg">
<rect width="26" height="26" rx="13" fill="#FDEDFE"/>
<path fill-rule="evenodd" clip-rule="evenodd" d="M13 9.9375C13.2416 9.9375 13.4375 10.1334 13.4375 10.375V13.4375C13.4375 13.6791 13.2416 13.875 13 13.875C12.7584 13.875 12.5625 13.6791 12.5625 13.4375V10.375C12.5625 10.1334 12.7584 9.9375 13 9.9375Z" fill="#F26CF9"/>
<path fill-rule="evenodd" clip-rule="evenodd" d="M14.9955 7.3125C15.1095 7.31222 15.2225 7.33437 15.328 7.3777C15.4337 7.42114 15.5299 7.48501 15.6109 7.56566L15.6117 7.56642L18.4343 10.3891C18.515 10.4701 18.5789 10.5663 18.6223 10.672C18.6656 10.7776 18.6878 10.8906 18.6875 11.0046L18.6875 11.0054L18.6875 11.0039V11.0046V14.9805C18.6875 15.2126 18.5953 15.4352 18.4312 15.5992L15.5992 18.4312C15.4352 18.5953 15.2126 18.6875 14.9805 18.6875H10.9937C10.7617 18.6875 10.5391 18.5953 10.375 18.4312L7.56878 15.625C7.40469 15.4609 7.3125 15.2383 7.3125 15.0063V10.9736C7.3125 10.74 7.40596 10.516 7.57207 10.3516L10.3879 7.56552C10.5517 7.40342 10.7728 7.3125 11.0033 7.3125H14.9955ZM14.9953 8.1875L17.8125 11.0047V14.9805L14.9805 17.8125H10.9937L8.1875 15.0063V10.9736L11.0033 8.1875H14.9953Z" fill="#F26CF9"/>
<path d="M13 16.0625C13.3624 16.0625 13.6562 15.7687 13.6562 15.4063C13.6562 15.0438 13.3624 14.75 13 14.75C12.6376 14.75 12.3438 15.0438 12.3438 15.4063C12.3438 15.7687 12.6376 16.0625 13 16.0625Z" fill="#F26CF9"/>
</svg>
