<svg width="27" height="26" viewBox="0 0 27 26" fill="none" xmlns="http://www.w3.org/2000/svg">
<rect x="0.666016" width="26" height="26" rx="13" fill="#FDEDFE"/>
<path d="M18.041 7.75H9.29102C9.05895 7.75 8.83639 7.84219 8.6723 8.00628C8.5082 8.17038 8.41602 8.39294 8.41602 8.625V17.375C8.41602 17.6071 8.5082 17.8296 8.6723 17.9937C8.83639 18.1578 9.05895 18.25 9.29102 18.25H18.041C18.2731 18.25 18.4956 18.1578 18.6597 17.9937C18.8238 17.8296 18.916 17.6071 18.916 17.375V8.625C18.916 8.39294 18.8238 8.17038 18.6597 8.00628C18.4956 7.84219 18.2731 7.75 18.041 7.75ZM18.041 17.375H9.29102V8.625H18.041V17.375ZM15.7255 11.5595L14.2845 13L15.7255 14.4405C15.7662 14.4811 15.7984 14.5294 15.8204 14.5825C15.8424 14.6356 15.8538 14.6925 15.8538 14.75C15.8538 14.8075 15.8424 14.8644 15.8204 14.9175C15.7984 14.9706 15.7662 15.0189 15.7255 15.0595C15.6849 15.1002 15.6366 15.1324 15.5835 15.1544C15.5304 15.1764 15.4735 15.1877 15.416 15.1877C15.3585 15.1877 15.3016 15.1764 15.2485 15.1544C15.1954 15.1324 15.1471 15.1002 15.1065 15.0595L13.666 13.6185L12.2255 15.0595C12.1849 15.1002 12.1366 15.1324 12.0835 15.1544C12.0304 15.1764 11.9735 15.1877 11.916 15.1877C11.8585 15.1877 11.8016 15.1764 11.7485 15.1544C11.6954 15.1324 11.6471 15.1002 11.6065 15.0595C11.5658 15.0189 11.5336 14.9706 11.5116 14.9175C11.4896 14.8644 11.4783 14.8075 11.4783 14.75C11.4783 14.6925 11.4896 14.6356 11.5116 14.5825C11.5336 14.5294 11.5658 14.4811 11.6065 14.4405L13.0475 13L11.6065 11.5595C11.5244 11.4774 11.4783 11.3661 11.4783 11.25C11.4783 11.1339 11.5244 11.0226 11.6065 10.9405C11.6886 10.8584 11.7999 10.8123 11.916 10.8123C12.0321 10.8123 12.1435 10.8584 12.2255 10.9405L13.666 12.3815L15.1065 10.9405C15.1471 10.8998 15.1954 10.8676 15.2485 10.8456C15.3016 10.8236 15.3585 10.8123 15.416 10.8123C15.4735 10.8123 15.5304 10.8236 15.5835 10.8456C15.6366 10.8676 15.6849 10.8998 15.7255 10.9405C15.7662 10.9811 15.7984 11.0294 15.8204 11.0825C15.8424 11.1356 15.8538 11.1925 15.8538 11.25C15.8538 11.3075 15.8424 11.3644 15.8204 11.4175C15.7984 11.4706 15.7662 11.5189 15.7255 11.5595Z" fill="#F26CF9"/>
</svg>
